<svg id="Layer_1" data-name="Layer 1" xmlns="http://www.w3.org/2000/svg" xmlns:xlink="http://www.w3.org/1999/xlink" viewBox="0 0 280 300"><defs><style>.cls-1{fill:#2363af;}.cls-2{fill:#3d9cd6;}.cls-3,.cls-8{fill:#010101;}.cls-4{fill:#fff;}.cls-5{fill:url(#linear-gradient);}.cls-6{fill:url(#linear-gradient-2);}.cls-7{fill:url(#linear-gradient-3);}.cls-8{opacity:0.05;isolation:isolate;}.cls-9{fill:url(#linear-gradient-4);}</style><linearGradient id="linear-gradient" x1="-1018.7" y1="-1321.77" x2="-1018.7" y2="-1327.91" gradientTransform="translate(4851.36 6303.45) scale(4.64)" gradientUnits="userSpaceOnUse"><stop offset="0.39" stop-color="#d2d3d4" stop-opacity="0"/><stop offset="1" stop-color="#d2d3d4"/></linearGradient><linearGradient id="linear-gradient-2" x1="-1011.03" y1="-1324.83" x2="-1011.03" y2="-1331.22" xlink:href="#linear-gradient"/><linearGradient id="linear-gradient-3" x1="-1022.39" y1="-1319.03" x2="-1007.64" y2="-1319.03" gradientTransform="translate(4851.36 6303.45) scale(4.64)" gradientUnits="userSpaceOnUse"><stop offset="0" stop-color="#e8e7e5"/><stop offset="1" stop-color="#fff"/></linearGradient><linearGradient id="linear-gradient-4" x1="-1023.07" y1="-1329.66" x2="-1007.06" y2="-1329.66" xlink:href="#linear-gradient-3"/></defs><title>CSS3 Logo</title><path class="cls-1" d="M188.06,219.92,140,232.86,91.94,219.92,80.85,99.77h118.3Z"/><path class="cls-2" d="M140,109.5v113l.11,0L179,212.09l9-102.59Z"/><path class="cls-3" d="M112.73,82.12V75h10.43V67.14H104.9V89.26h18.26V82.12ZM141.93,75h7.29V67.14H131V75c2.44,2.44,3.72,3.61,7.25,7.14H131v7.14h18.26V82.12L141.93,75Zm25.88,0h7.29V67.14H156.84V75c2.44,2.44,3.72,3.61,7.25,7.14h-7.25v7.14H175.1V82.12L167.81,75Z"/><path class="cls-4" d="M140,139.54l-34.4,14.33,1.14,14.18L140,153.83l35.37-15.12,1.47-14.51L140,139.54Z"/><path class="cls-5" d="M105.56,153.87l1.14,14.18L140,153.83V139.54Z"/><path class="cls-6" d="M176.8,124.2,140,139.54v14.29l35.37-15.12Z"/><path class="cls-7" d="M105.61,153.87l1.14,14.18,51,.16-1.14,18.92-16.79,4.72-16.14-4.07-1-11.74h-15l2,22.66,30.32,9,30.16-8.8,3.91-45Z"/><path class="cls-8" d="M140,153.87h-34.4l1.14,14.18,33.26.11V153.87Zm0,37.94-.17,0-16.13-4.07-1-11.74h-15l2,22.66,30.32,9Z"/><path class="cls-9" d="M102.46,124.2H176.8l-1.47,14.51H104.26l-1.8-14.51Z"/><path class="cls-8" d="M140,124.2h-37.5l1.8,14.51H140V124.2Z"/></svg>