<?xml version="1.0" encoding="utf-8"?>
<!-- Generator: Adobe Illustrator 24.2.0, SVG Export Plug-In . SVG Version: 6.00 Build 0)  -->
<svg version="1.1" id="Layer_1" xmlns="http://www.w3.org/2000/svg" xmlns:xlink="http://www.w3.org/1999/xlink" x="0px" y="0px"
	 viewBox="0 0 1000 1000" style="enable-background:new 0 0 1000 1000;" xml:space="preserve">
<style type="text/css">
	.st0{fill-rule:evenodd;clip-rule:evenodd;fill:#00678F;}
	.st1{fill-rule:evenodd;clip-rule:evenodd;fill:#E38D1A;}
</style>
<g>
	<path class="st0" d="M74.7,681.5h28.1V570.3l43.8,97c5,11.7,12.1,16,25.9,16c13.8,0,20.5-4.3,25.7-16l43.6-97v111.2h28.3V570.3
		c0-10.8-4.3-16-13.4-18.8c-21.4-6.5-35.6-0.9-42.1,13.6l-43,95.9l-41.5-95.9c-6.3-14.5-20.7-20.1-42.3-13.6
		c-8.9,2.8-13.2,8-13.2,18.8V681.5L74.7,681.5z"/>
	<path class="st0" d="M293.5,591h28.3v61.1c-0.2,3.5,1.1,11.2,16.4,11.4c8,0.2,60.9,0,61.3,0v-73h28.3c0,0,0,99.5,0,100
		c0,24.6-30.4,30-44.7,30.2h-89V702c0.2,0,89,0,89.2,0c18.1-1.9,16-11,16-14v-7.3h-59.8c-27.9-0.2-45.8-12.5-46-26.6
		C293.5,652.8,294.1,591.5,293.5,591L293.5,591z"/>
	<path class="st0" d="M900.2,520.2c-17.3-0.4-30.7,1.3-41.9,6c-3.2,1.3-8.4,1.3-8.9,5.4c1.7,1.7,1.9,4.5,3.5,6.9
		c2.6,4.3,7.1,10.1,11.2,13.2c4.5,3.5,9.1,6.9,13.8,9.9c8.4,5.2,17.9,8.2,26.1,13.4c4.8,3,9.5,6.9,14.3,10.1
		c2.4,1.7,3.9,4.5,6.9,5.6c0-0.2,0-0.4,0-0.6c-1.5-1.9-1.9-4.8-3.5-6.9c-2.2-2.2-4.3-4.1-6.5-6.3c-6.3-8.4-14-15.8-22.5-21.8
		c-6.9-4.8-22-11.2-24.8-19.2c0,0-0.2-0.2-0.4-0.4c4.8-0.4,10.4-2.2,14.9-3.5c7.3-1.9,14-1.5,21.6-3.5c3.5-0.9,6.9-1.9,10.4-3
		c0-0.6,0-1.3,0-1.9c-3.9-3.9-6.7-9.1-10.8-12.7c-11-9.5-23.1-18.8-35.6-26.6c-6.7-4.3-15.3-7.1-22.5-10.8c-2.6-1.3-6.9-1.9-8.4-4.1
		c-3.9-4.8-6-11-8.9-16.6c-6.3-11.9-12.3-25-17.7-37.6c-3.9-8.4-6.3-16.8-11-24.6c-22.2-36.7-46.4-58.9-83.6-80.8
		c-8-4.5-17.5-6.5-27.6-8.9c-5.4-0.2-10.8-0.6-16.2-0.9c-3.5-1.5-6.9-5.6-9.9-7.6c-12.3-7.8-44-24.6-53.1-2.4
		c-5.8,14,8.6,27.9,13.6,35c3.7,5,8.4,10.6,11,16.2c1.5,3.7,1.9,7.6,3.5,11.4c3.5,9.5,6.7,20.1,11.2,28.9c2.4,4.5,5,9.3,8,13.4
		c1.7,2.4,4.7,3.5,5.4,7.3c-3,4.3-3.2,10.8-5,16.2c-7.8,24.4-4.7,54.6,6.3,72.5c3.5,5.4,11.7,17.3,22.7,12.7
		c9.7-3.9,7.6-16.2,10.4-27c0.6-2.6,0.2-4.3,1.5-6c0,0.2,0,0.4,0,0.4c3,6,6,11.9,8.9,17.9c6.7,10.6,18.4,21.6,28.1,28.9
		c5.2,3.9,9.3,10.6,15.8,13c0-0.2,0-0.4,0-0.6c-0.2,0-0.2,0-0.4,0c-1.3-1.9-3.2-2.8-5-4.3c-3.9-3.9-8.2-8.6-11.2-13
		c-9.1-12.1-17.1-25.5-24.2-39.3c-3.5-6.7-6.5-14-9.3-20.7c-1.3-2.6-1.3-6.5-3.5-7.8c-3.2,4.7-8,8.9-10.4,14.7
		c-4.1,9.3-4.5,20.7-6,32.6c-0.9,0.2-0.4,0-0.9,0.4c-6.9-1.7-9.3-8.9-11.9-14.9c-6.5-15.3-7.6-39.9-1.9-57.7
		c1.5-4.5,8-18.8,5.4-23.1c-1.3-4.1-5.6-6.5-8-9.7c-2.8-4.1-5.8-9.3-7.8-13.8c-5.2-12.1-7.8-25.5-13.4-37.6
		c-2.6-5.6-7.1-11.4-10.8-16.6c-4.1-5.8-8.6-9.9-11.9-16.8c-1.1-2.4-2.6-6.3-0.9-8.9c0.4-1.7,1.3-2.4,3-2.8
		c2.8-2.4,10.8,0.6,13.6,1.9c8,3.2,14.7,6.3,21.4,10.8c3,2.2,6.3,6.3,10.1,7.3c1.5,0,3,0,4.5,0c6.9,1.5,14.7,0.4,21.2,2.4
		c11.4,3.7,21.8,9.1,31.1,14.9c28.3,17.9,51.6,43.4,67.4,73.8c2.6,5,3.7,9.5,6,14.7c4.5,10.6,10.1,21.4,14.7,31.7
		c4.5,10.1,8.9,20.5,15.3,28.9c3.2,4.5,16.2,6.9,22,9.3c4.3,1.9,11,3.7,14.9,6c7.3,4.5,14.7,9.7,21.6,14.7
		C888.8,510.5,899.6,515.9,900.2,520.2L900.2,520.2z"/>
	<path class="st0" d="M680,332.6c-3.7,0-6.3,0.4-8.9,1.1c0,0,0,0.2,0,0.4c0.2,0,0.2,0,0.4,0c1.7,3.5,4.7,5.8,6.9,8.9
		c1.7,3.5,3.2,6.9,5,10.4c0.2-0.2,0.4-0.4,0.4-0.4c3-2.2,4.5-5.6,4.5-10.8c-1.3-1.5-1.5-3-2.6-4.5
		C684.5,335.4,681.7,334.3,680,332.6L680,332.6z"/>
	<path class="st1" d="M449.4,681.5h81.2c9.5,0,18.6-1.9,25.9-5.4c12.3-5.6,18.1-13.2,18.1-23.1v-20.7c0-8-6.7-15.5-20.1-20.7
		c-6.9-2.6-15.5-4.1-24-4.1h-34.1c-11.4,0-16.8-3.5-18.4-11c-0.2-0.9-0.2-1.7-0.2-2.6v-12.7c0-0.6,0-1.5,0.2-2.4
		c1.5-5.8,4.5-7.3,14.5-8.4c0.9,0,1.9,0,2.6,0h80.5v-18.8h-79c-11.4,0-17.5,0.6-22.9,2.4c-16.6,5.2-24,13.4-24,27.9v16.4
		c0,12.7,14.3,23.5,38.4,26.1c2.6,0.2,5.4,0.2,8.2,0.2h29.1c1.1,0,2.2,0,3,0.2c8.9,0.9,12.7,2.4,15.3,5.6c1.7,1.7,2.2,3.2,2.2,5.2
		v16.4c0,1.9-1.3,4.5-3.9,6.7c-2.6,2.2-6.7,3.7-12.1,3.9c-1.1,0-1.7,0.2-2.8,0.2h-77.9V681.5L449.4,681.5z"/>
	<path class="st1" d="M750.4,648.9c0,19.2,14.5,30,43.4,32.2c2.8,0.2,5.4,0.4,8.2,0.4h73.4v-18.8h-74.1c-16.4,0-22.7-4.1-22.7-14
		v-97.2h-28.3V648.9L750.4,648.9z"/>
	<path class="st1" d="M592.5,649.8v-66.9c0-17.1,12.1-27.4,35.6-30.7c2.6-0.2,5.2-0.4,7.6-0.4h53.5c2.8,0,5.2,0.2,8,0.4
		c23.5,3.2,35.4,13.6,35.4,30.7v66.9c0,13.8-5,21.2-16.6,26.1l27.6,25h-32.6l-22.5-20.3l-22.7,1.3h-30.2c-5,0-10.6-0.6-16.4-2.2
		C601.4,674.8,592.5,665.3,592.5,649.8L592.5,649.8z M623,648.3c0,0.9,0.4,1.7,0.6,2.8c1.5,7.8,8.9,12.1,20.1,12.1h25.5L645.9,642
		h32.6l20.5,18.6c3.9-2.2,6.3-5.2,7.1-9.1c0.2-0.9,0.2-1.9,0.2-2.8v-64.1c0-0.9,0-1.7-0.2-2.6c-1.5-7.3-8.9-11.4-19.9-11.4h-42.5
		c-12.5,0-20.7,5.4-20.7,14V648.3L623,648.3z"/>
	<path class="st1" d="M888.3,681.7h4.1V666h5.4v-3.2h-15.1v3.2h5.6V681.7L888.3,681.7z M919.7,681.7h3.9v-19h-5.8l-4.8,13l-5.2-13
		h-5.6v19h3.7v-14.5h0.2l5.4,14.5h2.8l5.4-14.5l0,0V681.7L919.7,681.7z"/>
</g>
</svg>
