<?xml version="1.0" encoding="utf-8"?>
<!-- Generator: Adobe Illustrator 25.1.0, SVG Export Plug-In . SVG Version: 6.00 Build 0)  -->
<svg version="1.0" id="Layer_1" xmlns="http://www.w3.org/2000/svg" xmlns:xlink="http://www.w3.org/1999/xlink" x="0px" y="0px"
	 viewBox="0 0 280 300" enable-background="new 0 0 280 300" xml:space="preserve">
<g>
</g>
<g>
	<path fill="#FFFFFF" d="M36.42,149.67c0,15.64,15.28,30.25,39.36,38.48c-4.81,24.21-0.86,43.73,12.32,51.33
		c13.55,7.82,33.74,2.41,52.91-14.35c18.68,16.07,37.56,22.4,50.73,14.78c13.54-7.84,17.66-28.68,12.72-53.64
		c25.09-8.29,39.12-20.75,39.12-36.6c0-15.28-15.3-28.5-39.06-36.68c5.32-26,0.81-45.04-12.92-52.96
		c-13.24-7.63-32.34-0.98-51.29,15.52c-19.72-17.51-38.63-22.85-52.35-14.91c-13.23,7.66-17,27.52-12.17,52.19
		C52.51,120.93,36.42,134.45,36.42,149.67z"/>
	<path fill="#53C1DE" d="M199.48,121.11c-1.91-0.66-3.89-1.28-5.92-1.87c0.33-1.37,0.64-2.71,0.91-4.04
		c4.48-21.76,1.55-39.29-8.46-45.06c-9.6-5.53-25.29,0.24-41.15,14.03c-1.52,1.33-3.05,2.73-4.58,4.2
		c-1.02-0.97-2.03-1.92-3.05-2.82c-16.61-14.75-33.27-20.97-43.27-15.18c-9.59,5.55-12.43,22.03-8.39,42.65
		c0.39,1.99,0.85,4.03,1.36,6.09c-2.36,0.67-4.63,1.38-6.81,2.14c-19.48,6.79-31.92,17.43-31.92,28.47
		c0,11.4,13.35,22.84,33.64,29.77c1.6,0.55,3.26,1.06,4.97,1.56c-0.56,2.24-1.04,4.43-1.44,6.57c-3.85,20.27-0.84,36.36,8.72,41.87
		c9.88,5.7,26.45-0.16,42.6-14.27c1.28-1.12,2.56-2.3,3.84-3.54c1.66,1.6,3.32,3.12,4.97,4.54c15.64,13.45,31.08,18.89,40.63,13.36
		c9.87-5.71,13.07-23,8.91-44.03c-0.32-1.61-0.69-3.25-1.1-4.92c1.16-0.34,2.31-0.7,3.42-1.07c21.09-6.99,34.81-18.28,34.81-29.84
		C232.19,138.66,219.35,127.95,199.48,121.11L199.48,121.11L199.48,121.11z"/>
	<path fill="#FFFFFF" d="M194.91,172.12c-1.01,0.33-2.04,0.65-3.09,0.97c-2.33-7.37-5.47-15.21-9.32-23.31
		c3.67-7.91,6.69-15.64,8.95-22.97c1.88,0.54,3.71,1.12,5.47,1.73c17.02,5.86,27.41,14.53,27.41,21.2
		C224.33,156.85,213.12,166.08,194.91,172.12L194.91,172.12L194.91,172.12z M187.35,187.09c1.84,9.3,2.1,17.71,0.88,24.28
		c-1.1,5.91-3.3,9.84-6.02,11.42c-5.8,3.36-18.2-1.01-31.57-12.51c-1.53-1.32-3.08-2.73-4.63-4.22
		c5.18-5.67,10.36-12.26,15.42-19.58c8.89-0.79,17.3-2.08,24.92-3.84C186.73,184.15,187.06,185.64,187.35,187.09L187.35,187.09
		L187.35,187.09z M110.94,222.21c-5.66,2-10.18,2.06-12.9,0.49c-5.8-3.35-8.22-16.27-4.92-33.6c0.38-1.98,0.83-4.02,1.34-6.11
		c7.54,1.67,15.88,2.87,24.79,3.59c5.09,7.16,10.42,13.75,15.79,19.51c-1.17,1.13-2.34,2.21-3.51,3.23
		C124.4,215.56,117.24,219.99,110.94,222.21L110.94,222.21L110.94,222.21z M84.4,172.08c-8.97-3.07-16.38-7.05-21.46-11.4
		c-4.56-3.91-6.87-7.79-6.87-10.94c0-6.7,9.99-15.24,26.64-21.05c2.02-0.7,4.14-1.37,6.33-1.99c2.3,7.49,5.32,15.32,8.97,23.24
		c-3.69,8.03-6.75,15.99-9.08,23.57C87.38,173.05,85.86,172.57,84.4,172.08L84.4,172.08L84.4,172.08z M93.3,111.52
		c-3.46-17.67-1.16-31,4.62-34.34c6.15-3.56,19.76,1.52,34.11,14.25c0.92,0.81,1.84,1.67,2.76,2.55
		c-5.35,5.74-10.63,12.27-15.67,19.39c-8.65,0.8-16.93,2.09-24.55,3.82C94.08,115.26,93.66,113.37,93.3,111.52L93.3,111.52
		L93.3,111.52z M172.65,131.12c-1.82-3.14-3.69-6.21-5.59-9.2c5.87,0.74,11.49,1.73,16.78,2.93c-1.59,5.08-3.56,10.39-5.89,15.84
		C176.28,137.52,174.51,134.33,172.65,131.12L172.65,131.12L172.65,131.12z M140.29,99.6c3.63,3.93,7.26,8.31,10.83,13.07
		c-3.6-0.17-7.24-0.26-10.91-0.26c-3.64,0-7.25,0.09-10.83,0.25C132.95,107.95,136.61,103.57,140.29,99.6L140.29,99.6L140.29,99.6z
		 M107.72,131.17c-1.82,3.15-3.55,6.33-5.19,9.51c-2.29-5.43-4.25-10.77-5.85-15.92c5.25-1.17,10.85-2.14,16.68-2.86
		C111.43,124.92,109.55,128.01,107.72,131.17L107.72,131.17L107.72,131.17z M113.53,178.14c-6.03-0.67-11.71-1.58-16.96-2.73
		c1.62-5.25,3.63-10.7,5.96-16.24c1.65,3.18,3.39,6.36,5.22,9.52h0C109.62,171.91,111.55,175.06,113.53,178.14L113.53,178.14
		L113.53,178.14z M140.51,200.44c-3.72-4.02-7.44-8.46-11.07-13.25c3.52,0.14,7.11,0.21,10.76,0.21c3.75,0,7.46-0.08,11.11-0.25
		C147.73,192.02,144.11,196.47,140.51,200.44L140.51,200.44L140.51,200.44z M178.02,158.89c2.46,5.6,4.53,11.03,6.18,16.18
		c-5.33,1.22-11.09,2.2-17.16,2.93c1.91-3.03,3.8-6.15,5.65-9.36C174.56,165.39,176.34,162.13,178.02,158.89L178.02,158.89
		L178.02,158.89z M165.88,164.71c-2.88,4.99-5.83,9.75-8.83,14.24c-5.46,0.39-11.1,0.59-16.85,0.59c-5.73,0-11.29-0.18-16.66-0.53
		c-3.12-4.55-6.13-9.33-8.99-14.26h0c-2.85-4.92-5.47-9.89-7.85-14.82c2.38-4.95,4.99-9.92,7.83-14.83l0,0
		c2.84-4.93,5.83-9.68,8.92-14.2c5.47-0.41,11.08-0.63,16.75-0.63h0c5.7,0,11.31,0.22,16.78,0.63c3.04,4.49,6.01,9.23,8.86,14.15
		c2.88,4.98,5.53,9.92,7.93,14.76C171.39,154.74,168.75,159.73,165.88,164.71L165.88,164.71L165.88,164.71z M182.09,76.95
		c6.16,3.55,8.56,17.88,4.69,36.67c-0.25,1.2-0.52,2.42-0.83,3.66c-7.63-1.76-15.92-3.07-24.6-3.89
		c-5.06-7.2-10.29-13.74-15.55-19.41c1.41-1.36,2.83-2.66,4.23-3.88C163.61,78.28,176.31,73.61,182.09,76.95L182.09,76.95
		L182.09,76.95z"/>
	<path fill="#53C1DE" d="M140.21,133.31c9.07,0,16.43,7.35,16.43,16.43c0,9.07-7.36,16.43-16.43,16.43
		c-9.07,0-16.43-7.36-16.43-16.43C123.78,140.67,131.13,133.31,140.21,133.31"/>
</g>
</svg>
